<svg width="17" height="17" viewBox="0 0 17 17" fill="none" xmlns="http://www.w3.org/2000/svg">
<path d="M7.93774 6.36034H9.29708L9.29708 5.28881H7.93774L7.93774 6.36034Z" fill="#2F4858"/>
<path d="M9.29708 7.43188V11.718H7.93774V7.43188H9.29708Z" fill="#2F4858"/>
<path fill-rule="evenodd" clip-rule="evenodd" d="M9.23551 1.03617C10.9658 1.20666 12.5797 1.97258 13.7938 3.19926C15.1165 4.52325 15.8985 6.28054 15.9908 8.13616C16.0831 9.99178 15.4791 11.8158 14.2941 13.2609C13.2042 14.5958 11.6746 15.513 9.97054 15.8535C8.26645 16.1941 6.49514 15.9366 4.96354 15.1255C3.42866 14.2968 2.23044 12.9724 1.57063 11.3751C0.907881 9.76962 0.819656 7.98954 1.3205 6.32807C1.82027 4.67307 2.88423 3.23874 4.33279 2.26703C5.76934 1.30153 7.50524 0.865679 9.23551 1.03617ZM9.74845 14.804C11.2087 14.5121 12.5201 13.7278 13.4567 12.5859C14.4709 11.344 14.9869 9.77813 14.9067 8.18599C14.8265 6.59385 14.1557 5.08621 13.0217 3.94928C11.983 2.90455 10.6047 2.25278 9.12779 2.10784C7.65083 1.9629 6.16917 2.334 4.94177 3.15636C4.01789 3.78363 3.27187 4.63294 2.77433 5.62382C2.27678 6.6147 2.04422 7.71433 2.09867 8.81856C2.15313 9.92278 2.49279 10.9951 3.08549 11.9338C3.67819 12.8724 4.50426 13.6465 5.48551 14.1825C6.78865 14.8755 8.29748 15.0954 9.74845 14.804Z" fill="#2F4858"/>
<path d="M7.93774 6.36034H9.29708L9.29708 5.28881H7.93774L7.93774 6.36034Z" stroke="#2F4858" stroke-width="0.5"/>
<path d="M9.29708 7.43188V11.718H7.93774V7.43188H9.29708Z" stroke="#2F4858" stroke-width="0.5"/>
<path fill-rule="evenodd" clip-rule="evenodd" d="M9.23551 1.03617C10.9658 1.20666 12.5797 1.97258 13.7938 3.19926C15.1165 4.52325 15.8985 6.28054 15.9908 8.13616C16.0831 9.99178 15.4791 11.8158 14.2941 13.2609C13.2042 14.5958 11.6746 15.513 9.97054 15.8535C8.26645 16.1941 6.49514 15.9366 4.96354 15.1255C3.42866 14.2968 2.23044 12.9724 1.57063 11.3751C0.907881 9.76962 0.819656 7.98954 1.3205 6.32807C1.82027 4.67307 2.88423 3.23874 4.33279 2.26703C5.76934 1.30153 7.50524 0.865679 9.23551 1.03617ZM9.74845 14.804C11.2087 14.5121 12.5201 13.7278 13.4567 12.5859C14.4709 11.344 14.9869 9.77813 14.9067 8.18599C14.8265 6.59385 14.1557 5.08621 13.0217 3.94928C11.983 2.90455 10.6047 2.25278 9.12779 2.10784C7.65083 1.9629 6.16917 2.334 4.94177 3.15636C4.01789 3.78363 3.27187 4.63294 2.77433 5.62382C2.27678 6.6147 2.04422 7.71433 2.09867 8.81856C2.15313 9.92278 2.49279 10.9951 3.08549 11.9338C3.67819 12.8724 4.50426 13.6465 5.48551 14.1825C6.78865 14.8755 8.29748 15.0954 9.74845 14.804Z" stroke="#2F4858" stroke-width="0.5"/>
</svg>
