<?xml version="1.0" encoding="UTF-8" standalone="no"?>
<svg
   xmlns:dc="http://purl.org/dc/elements/1.1/"
   xmlns:cc="http://creativecommons.org/ns#"
   xmlns:rdf="http://www.w3.org/1999/02/22-rdf-syntax-ns#"
   xmlns:svg="http://www.w3.org/2000/svg"
   xmlns="http://www.w3.org/2000/svg"
   viewBox="0 0 666.66669 666.66669"
   height="666.66669"
   width="666.66669"
   xml:space="preserve"
   id="svg2"
   version="1.1"><metadata
     id="metadata8"><rdf:RDF><cc:Work
         rdf:about=""><dc:format>image/svg+xml</dc:format><dc:type
           rdf:resource="http://purl.org/dc/dcmitype/StillImage" /></cc:Work></rdf:RDF></metadata><defs
     id="defs6"><clipPath
       id="clipPath18"
       clipPathUnits="userSpaceOnUse"><path
         id="path16"
         d="M 0,500 H 500 V 0 H 0 Z" /></clipPath></defs><g
     transform="matrix(1.3333333,0,0,-1.3333333,0,666.66667)"
     id="g10"><g
       id="g12"><g
         clip-path="url(#clipPath18)"
         id="g14"><g
           transform="translate(463.9064,129.0599)"
           id="g20"><path
             id="path22"
             style="fill:#fff;fill-opacity:1;fill-rule:nonzero;stroke:none"
             d="M 0,0 C -2.969,-30.013 -18.688,-49.641 -37.069,-62.45 V 75.356 C -11.641,54.474 2.739,27.694 0,0 m -67.193,-77.656 c -20.375,-7.266 -43.356,-10.387 -66.11,-9.826 L -57.247,52.882 V -73.689 c -3.362,-1.487 -6.697,-2.808 -9.946,-3.967 M -197.787,81.976 -160.67,-85.016 c -29.757,4.678 -57.014,15.704 -74.866,31.971 z m 56.971,33.384 0.002,0.014 c 0.141,-0.02 0.278,-0.049 0.421,-0.063 30.37,-3.005 58.06,-11.859 80.697,-24.589 l -84.645,-156.22 -40.663,182.954 c 12.694,0.931 27.298,0.301 44.188,-2.096 m 113.013,193.282 c 12.61,-22.371 7.121,-71.088 -90.245,-176.145 -6.553,1.215 -13.245,2.178 -20.061,2.861 -5.446,0.77 -10.722,1.374 -15.844,1.819 l -56.792,195.281 c 51.384,9.071 159.094,18.48 182.942,-23.816 M -95.554,127.176 c 80.148,88.389 108.065,151.06 85.322,191.385 -16.473,29.197 -58.369,43.232 -124.38,41.707 -47.138,-1.083 -89.205,-9.739 -90.973,-10.106 l -10.678,-2.221 61.037,-209.868 c -58.081,-0.434 -92.426,-26.796 -111.948,-83.954 -2.803,-8.207 -5.027,-15.976 -6.99,-22.828 -7.594,-26.523 -11.725,-38.532 -30.03,-45.232 -6.383,-2.332 -13.104,-3.66 -19.857,-4.061 -46.196,0.283 -83.693,37.941 -83.693,84.204 0,46.434 37.779,84.215 84.215,84.215 19.399,0 35.744,-7.85 44.842,-21.544 3.084,-4.636 9.35,-5.897 13.986,-2.818 4.64,3.084 5.901,9.35 2.817,13.99 -12.904,19.414 -35.372,30.55 -61.645,30.55 -57.562,0 -104.393,-46.831 -104.393,-104.393 0,-33.197 15.578,-62.824 39.807,-81.959 15.584,-14.711 37.337,-22.623 59.517,-22.623 10.556,0 21.209,1.789 31.332,5.493 28.722,10.508 35.107,32.803 42.501,58.626 1.987,6.946 4.047,14.128 6.684,21.857 10.81,31.655 26.301,55.501 57.998,65.335 l -55.869,-199.833 c -1.5,-5.365 1.635,-10.931 7,-12.429 5.376,-1.517 10.933,1.636 12.433,7 l 5.038,18.021 c 28.404,-21.546 70.752,-33.469 113.278,-33.469 23.296,0 46.651,3.581 67.789,11.118 1.069,0.382 2.117,0.781 3.167,1.179 v -12.489 c 0,-5.572 4.518,-10.089 10.089,-10.089 5.572,0 10.089,4.517 10.089,10.089 v 21.812 c 33.514,18.647 53.553,47.852 57.148,84.169 5.527,55.89 -43.886,108.363 -115.633,129.166" /></g></g></g></g></svg>