<?xml version="1.0" standalone="no"?>
<!DOCTYPE svg PUBLIC "-//W3C//DTD SVG 20010904//EN"
 "http://www.w3.org/TR/2001/REC-SVG-20010904/DTD/svg10.dtd">
<svg version="1.0" xmlns="http://www.w3.org/2000/svg"
 width="260.000000pt" height="260.000000pt" viewBox="0 0 260.000000 260.000000"
 preserveAspectRatio="xMidYMid meet">
<metadata>
Created by potrace 1.14, written by Peter Selinger 2001-2017
</metadata>
<g transform="translate(0.000000,260.000000) scale(0.100000,-0.100000)"
fill="#000000" stroke="none">
<path d="M1194 2094 c-86 -42 -85 -178 2 -219 40 -19 65 -19 107 -1 90 37 92
177 3 220 -42 20 -72 20 -112 0z"/>
<path d="M1543 2090 c-34 -21 -63 -66 -63 -100 0 -65 63 -130 126 -130 37 0
94 36 111 70 40 78 -25 180 -114 180 -15 0 -42 -9 -60 -20z"/>
<path d="M1210 1710 c-101 -21 -221 -66 -296 -111 l-54 -33 0 -451 0 -451 58
-33 c64 -37 155 -76 201 -86 l31 -7 0 452 c0 419 1 451 17 448 14 -2 28 -68
85 -383 37 -209 70 -386 73 -392 3 -9 35 -13 109 -13 l105 0 10 53 c12 60 131
725 131 732 0 3 7 5 15 5 13 0 15 -56 15 -445 0 -369 2 -445 14 -445 25 0 150
69 219 121 l67 51 0 398 0 399 -57 44 c-72 55 -132 89 -203 117 -52 21 -181
52 -187 46 -2 -1 -28 -155 -58 -342 -62 -382 -62 -384 -73 -384 -5 0 -35 161
-66 358 -32 196 -61 360 -65 363 -3 4 -44 -1 -91 -11z"/>
<path d="M542 1374 c-12 -8 -22 -25 -22 -37 0 -15 -11 -27 -32 -37 -100 -47
-96 -173 6 -224 33 -16 44 -17 77 -7 76 23 114 96 86 164 -14 31 -37 55 -83
83 -15 10 -16 15 -7 25 10 9 18 10 37 1 20 -9 27 -8 37 5 29 35 -55 58 -99 27z"/>
<path d="M2170 1119 l0 -234 109 115 108 115 -88 100 c-48 55 -97 109 -108
119 l-21 19 0 -234z"/>
</g>
</svg>
