<svg width="15" height="13" viewBox="0 0 15 13" fill="none" xmlns="http://www.w3.org/2000/svg">
<path opacity="0.75" d="M3.638 4.792V13H0.742V4.792H3.638ZM0.55 1.64C0.55 1.416 0.592667 1.208 0.678 1.016C0.763333 0.813333 0.880667 0.637333 1.03 0.487999C1.17933 0.338666 1.35 0.221333 1.542 0.136C1.74467 0.0506662 1.958 0.00799942 2.182 0.00799942C2.406 0.00799942 2.614 0.0506662 2.806 0.136C3.00867 0.221333 3.18467 0.338666 3.334 0.487999C3.48333 0.637333 3.60067 0.813333 3.686 1.016C3.77133 1.208 3.814 1.416 3.814 1.64C3.814 1.864 3.77133 2.07733 3.686 2.28C3.60067 2.472 3.48333 2.64267 3.334 2.792C3.18467 2.94133 3.00867 3.05867 2.806 3.144C2.614 3.22933 2.406 3.272 2.182 3.272C1.958 3.272 1.74467 3.22933 1.542 3.144C1.35 3.05867 1.17933 2.94133 1.03 2.792C0.880667 2.64267 0.763333 2.472 0.678 2.28C0.592667 2.07733 0.55 1.864 0.55 1.64ZM5.617 4.792H8.513V5.832C8.90767 5.352 9.30767 5.032 9.713 4.872C10.1183 4.70133 10.593 4.616 11.137 4.616C11.713 4.616 12.2037 4.712 12.609 4.904C13.025 5.08533 13.377 5.34667 13.665 5.688C13.8997 5.96533 14.0597 6.27467 14.145 6.616C14.2303 6.95733 14.273 7.34667 14.273 7.784V13H11.377V8.856C11.377 8.45067 11.345 8.12533 11.281 7.88C11.2277 7.624 11.1263 7.42133 10.977 7.272C10.849 7.144 10.705 7.05333 10.545 7C10.385 6.94667 10.2143 6.92 10.033 6.92C9.54233 6.92 9.16367 7.06933 8.897 7.368C8.641 7.656 8.513 8.072 8.513 8.616V13H5.617V4.792Z" fill="#2D2D2D"/>
</svg>
